# xmcd CD database file
#
# Track frame offsets:
#	150
#	28902
#	67402
#	94689
#	126190
#	157770
#	187377
#	214220
#	230109
#
# Disc length: 3487 seconds
#
# Revision: 0
# Processed by: cddbd v1.5.1PL0 Copyright (c) Steve Scherf et al.
# Submitted via: CDex 1.51
#
DISCID=8a0d9d09
DTITLE=Misha Mengelberg - Senne Sing Song
DYEAR=2005
DGENRE=Jazz
TTITLE0=Hypo Xmas Tree Fuzz
TTITLE1=We are Going Out for Italian
TTITLE2=Kwela P Kwana
TTITLE3=Blues for Piet
TTITLE4=Reef und Kneebus
TTITLE5=Brozziman
TTITLE6=Poor Wheel
TTITLE7=Tieriogre
TTITLE8=Senne Sing Song
EXTD=YEAR: 2005
EXTT0=
EXTT1=
EXTT2=
EXTT3=
EXTT4=
EXTT5=
EXTT6=
EXTT7=
EXTT8=
PLAYORDER=
